# 3ds Max Wavefront OBJ Exporter v0.97b - (c)2007 guruware
# File Created: 25.08.2020 10:54:55

mtllib bullet.mtl

#
# object Shell
#

v  0.1293 -0.0000 -0.1980
v  0.0915 0.0915 -0.1980
v  0.0915 0.0915 0.0078
v  0.1293 -0.0000 0.0078
v  0.0000 0.1293 -0.1980
v  0.0000 0.1293 0.0078
v  -0.0915 0.0915 -0.1980
v  -0.0915 0.0915 0.0078
v  -0.1293 0.0000 -0.1980
v  -0.1293 -0.0000 0.0078
v  -0.0915 -0.0915 -0.1980
v  -0.0915 -0.0915 0.0078
v  0.0000 -0.1293 -0.1980
v  -0.0000 -0.1293 0.0078
v  0.0915 -0.0915 -0.1980
v  0.0915 -0.0915 0.0078
v  0.1056 -0.1056 -0.2626
v  0.0000 -0.1494 -0.2626
v  -0.1056 -0.1056 -0.2626
v  -0.1494 0.0000 -0.2626
v  -0.1056 0.1056 -0.2626
v  0.0000 0.1494 -0.2626
v  0.1056 0.1056 -0.2626
v  0.1494 -0.0000 -0.2626
v  0.1494 -0.0000 -0.2101
v  0.1056 0.1056 -0.2101
v  0.1056 -0.1056 -0.2101
v  0.0000 -0.1494 -0.2101
v  -0.1056 -0.1056 -0.2101
v  -0.1494 0.0000 -0.2101
v  -0.1056 0.1056 -0.2101
v  0.0000 0.1494 -0.2101
v  0.0915 0.0915 0.0104
v  0.1293 -0.0000 0.0104
v  0.0000 0.1293 0.0104
v  -0.0915 0.0915 0.0104
v  -0.1293 -0.0000 0.0104
v  -0.0915 -0.0915 0.0104
v  -0.0000 -0.1293 0.0104
v  0.0915 -0.0915 0.0104
v  0.0812 0.0812 0.0226
v  0.1149 -0.0000 0.0226
v  0.0000 0.1149 0.0226
v  -0.0812 0.0812 0.0226
v  -0.1149 -0.0000 0.0226
v  -0.0812 -0.0812 0.0226
v  -0.0000 -0.1149 0.0226
v  0.0812 -0.0812 0.0226
v  0.0907 0.0907 0.0320
v  0.1282 -0.0000 0.0320
v  0.0000 0.1282 0.0320
v  -0.0907 0.0907 0.0320
v  -0.1282 -0.0000 0.0320
v  -0.0907 -0.0907 0.0320
v  -0.0000 -0.1282 0.0320
v  0.0907 -0.0907 0.0320
v  0.0881 0.0881 0.0858
v  0.1246 -0.0000 0.0858
v  -0.0000 0.1246 0.0858
v  -0.0881 0.0881 0.0858
v  -0.1246 -0.0000 0.0858
v  -0.0881 -0.0881 0.0858
v  -0.0000 -0.1246 0.0858
v  0.0881 -0.0881 0.0858
v  0.0687 0.0687 0.1788
v  0.0972 -0.0000 0.1788
v  -0.0000 0.0972 0.1788
v  -0.0687 0.0687 0.1788
v  -0.0972 -0.0000 0.1788
v  -0.0687 -0.0687 0.1788
v  -0.0000 -0.0972 0.1788
v  0.0687 -0.0687 0.1788
v  -0.0000 -0.0000 0.2626
# 73 vertices

vn 1.0000 -0.0000 0.0000
vn 0.7071 0.7071 0.0000
vn 0.0000 1.0000 0.0000
vn -0.7071 0.7071 0.0000
vn -1.0000 -0.0000 -0.0000
vn -0.7071 -0.7071 -0.0000
vn -0.0000 -1.0000 -0.0000
vn 0.7071 -0.7071 -0.0000
vn 0.0000 0.0000 -1.0000
vn 0.3662 0.3662 0.8555
vn 0.5178 -0.0000 0.8555
vn 0.3662 -0.3662 0.8555
vn -0.0000 -0.5178 0.8555
vn -0.3662 -0.3662 0.8555
vn -0.5178 -0.0000 0.8555
vn -0.3662 0.3662 0.8555
vn -0.0000 0.5178 0.8555
vn -1.0000 0.0000 -0.0000
vn 0.6518 0.6518 0.3876
vn 0.9218 -0.0000 0.3876
vn 0.0000 0.9218 0.3876
vn -0.6518 0.6518 0.3876
vn -0.9218 -0.0000 0.3876
vn -0.6518 -0.6518 0.3876
vn -0.0000 -0.9218 0.3876
vn 0.6518 -0.6518 0.3876
vn 0.4544 0.4544 0.7662
vn 0.6426 -0.0000 0.7662
vn -0.0000 0.6426 0.7662
vn -0.4544 0.4544 0.7662
vn -0.6426 -0.0000 0.7662
vn -0.4544 -0.4544 0.7662
vn -0.0000 -0.6426 0.7662
vn 0.4544 -0.4544 0.7662
vn 0.5771 0.0000 -0.8167
vn 0.4081 0.4081 -0.8167
vn 0.0000 0.5771 -0.8167
vn -0.4081 0.4081 -0.8167
vn -0.5771 0.0000 -0.8167
vn -0.4081 -0.4081 -0.8167
vn 0.0000 -0.5771 -0.8167
vn 0.4081 -0.4081 -0.8167
vn 0.9978 -0.0000 0.0670
vn 0.7055 0.7055 0.0670
vn 0.6966 0.6966 0.1716
vn 0.9852 -0.0000 0.1716
vn 0.0000 0.9978 0.0670
vn 0.0000 0.9852 0.1716
vn -0.7055 0.7055 0.0670
vn -0.6966 0.6966 0.1716
vn -0.9978 0.0000 0.0670
vn -0.9852 0.0000 0.1716
vn -0.7055 -0.7055 0.0670
vn -0.6966 -0.6966 0.1716
vn -0.0000 -0.9978 0.0670
vn -0.0000 -0.9852 0.1716
vn 0.7055 -0.7055 0.0670
vn 0.6966 -0.6966 0.1716
vn 0.6071 0.6071 0.5127
vn 0.8586 -0.0000 0.5127
vn -0.0000 0.8586 0.5127
vn -0.6071 0.6071 0.5127
vn -0.8586 -0.0000 0.5127
vn -0.6071 -0.6071 0.5127
vn -0.0000 -0.8586 0.5127
vn 0.6071 -0.6071 0.5127
vn -0.0000 -0.0000 1.0000
# 67 vertex normals

vt 0.7500 0.0000 0.0000
vt 0.8750 0.0000 0.0000
vt 0.8750 1.0000 0.0000
vt 0.7500 1.0000 0.0000
vt 1.0000 0.0000 0.0000
vt 1.0000 1.0000 0.0000
vt 0.0000 0.0000 0.0000
vt 0.1250 0.0000 0.0000
vt 0.1250 1.0000 0.0000
vt 0.0000 1.0000 0.0000
vt 0.2500 0.0000 0.0000
vt 0.2500 1.0000 0.0000
vt 0.3750 0.0000 0.0000
vt 0.3750 1.0000 0.0000
vt 0.5000 0.0000 0.0000
vt 0.5000 1.0000 0.0000
vt 0.6250 0.0000 0.0000
vt 0.6250 1.0000 0.0000
vt 0.8536 0.8536 0.0000
vt 1.0000 0.5000 0.0000
vt 0.8536 0.1464 0.0000
vt 0.1464 0.1464 0.0000
vt 0.0000 0.5000 0.0000
vt 0.1464 0.8536 0.0000
vt 0.5000 0.5000 0.0000
# 25 texture coords

o Shell
g Shell
usemtl Material__25
s off
f 1/1/1 2/2/2 3/3/2 
f 3/3/2 4/4/1 1/1/1 
f 2/2/2 5/5/3 6/6/3 
f 6/6/3 3/3/2 2/2/2 
f 5/7/3 7/8/4 8/9/4 
f 8/9/4 6/10/3 5/7/3 
f 7/8/4 9/11/5 10/12/5 
f 10/12/5 8/9/4 7/8/4 
f 9/11/5 11/13/6 12/14/6 
f 12/14/6 10/12/5 9/11/5 
f 11/13/6 13/15/7 14/16/7 
f 14/16/7 12/14/6 11/13/6 
f 13/15/7 15/17/8 16/18/8 
f 16/18/8 14/16/7 13/15/7 
f 15/17/8 1/1/1 4/4/1 
f 4/4/1 16/18/8 15/17/8 
f 17/19/9 18/20/9 19/21/9 
f 17/19/9 19/21/9 20/15/9 
f 17/19/9 20/15/9 21/22/9 
f 17/19/9 21/22/9 22/23/9 
f 17/19/9 22/23/9 23/24/9 
f 17/19/9 23/24/9 24/16/9 
f 2/24/10 1/16/11 25/16/11 
f 25/16/11 26/24/10 2/24/10 
f 1/16/11 15/19/12 27/19/12 
f 27/19/12 25/16/11 1/16/11 
f 15/19/12 13/20/13 28/20/13 
f 28/20/13 27/19/12 15/19/12 
f 13/20/13 11/21/14 29/21/14 
f 29/21/14 28/20/13 13/20/13 
f 11/21/14 9/15/15 30/15/15 
f 30/15/15 29/21/14 11/21/14 
f 9/15/15 7/22/16 31/22/16 
f 31/22/16 30/15/15 9/15/15 
f 7/22/16 5/23/17 32/23/17 
f 32/23/17 31/22/16 7/22/16 
f 5/23/17 2/24/10 26/24/10 
f 26/24/10 32/23/17 5/23/17 
f 26/24/2 25/16/1 24/16/1 
f 24/16/1 23/24/2 26/24/2 
f 25/16/1 27/19/8 17/19/8 
f 17/19/8 24/16/1 25/16/1 
f 27/19/8 28/20/7 18/20/7 
f 18/20/7 17/19/8 27/19/8 
f 28/20/7 29/21/6 19/21/6 
f 19/21/6 18/20/7 28/20/7 
f 29/21/6 30/15/18 20/15/18 
f 20/15/18 19/21/6 29/21/6 
f 30/15/18 31/22/4 21/22/4 
f 21/22/4 20/15/18 30/15/18 
f 31/22/4 32/23/3 22/23/3 
f 22/23/3 21/22/4 31/22/4 
f 32/23/3 26/24/2 23/24/2 
f 23/24/2 22/23/3 32/23/3 
f 4/16/1 3/24/2 33/24/19 
f 33/24/19 34/16/20 4/16/1 
f 3/24/2 6/23/3 35/23/21 
f 35/23/21 33/24/19 3/24/2 
f 6/23/3 8/22/4 36/22/22 
f 36/22/22 35/23/21 6/23/3 
f 8/22/4 10/15/5 37/15/23 
f 37/15/23 36/22/22 8/22/4 
f 10/15/5 12/21/6 38/21/24 
f 38/21/24 37/15/23 10/15/5 
f 12/21/6 14/20/7 39/20/25 
f 39/20/25 38/21/24 12/21/6 
f 14/20/7 16/19/8 40/19/26 
f 40/19/26 39/20/25 14/20/7 
f 16/19/8 4/16/1 34/16/20 
f 34/16/20 40/19/26 16/19/8 
f 34/16/20 33/24/19 41/24/27 
f 41/24/27 42/16/28 34/16/20 
f 33/24/19 35/23/21 43/23/29 
f 43/23/29 41/24/27 33/24/19 
f 35/23/21 36/22/22 44/22/30 
f 44/22/30 43/23/29 35/23/21 
f 36/22/22 37/15/23 45/15/31 
f 45/15/31 44/22/30 36/22/22 
f 37/15/23 38/21/24 46/21/32 
f 46/21/32 45/15/31 37/15/23 
f 38/21/24 39/20/25 47/20/33 
f 47/20/33 46/21/32 38/21/24 
f 39/20/25 40/19/26 48/19/34 
f 48/19/34 47/20/33 39/20/25 
f 40/19/26 34/16/20 42/16/28 
f 42/16/28 48/19/34 40/19/26 
f 42/16/35 41/24/36 49/24/36 
f 49/24/36 50/16/35 42/16/35 
f 41/24/36 43/23/37 51/23/37 
f 51/23/37 49/24/36 41/24/36 
f 43/23/37 44/22/38 52/22/38 
f 52/22/38 51/23/37 43/23/37 
f 44/22/38 45/15/39 53/15/39 
f 53/15/39 52/22/38 44/22/38 
f 45/15/39 46/21/40 54/21/40 
f 54/21/40 53/15/39 45/15/39 
f 46/21/40 47/20/41 55/20/41 
f 55/20/41 54/21/40 46/21/40 
f 47/20/41 48/19/42 56/19/42 
f 56/19/42 55/20/41 47/20/41 
f 48/19/42 42/16/35 50/16/35 
f 50/16/35 56/19/42 48/19/42 
f 50/16/43 49/24/44 57/24/45 
f 57/24/45 58/16/46 50/16/43 
f 49/24/44 51/23/47 59/23/48 
f 59/23/48 57/24/45 49/24/44 
f 51/23/47 52/22/49 60/22/50 
f 60/22/50 59/23/48 51/23/47 
f 52/22/49 53/15/51 61/15/52 
f 61/15/52 60/22/50 52/22/49 
f 53/15/51 54/21/53 62/21/54 
f 62/21/54 61/15/52 53/15/51 
f 54/21/53 55/20/55 63/20/56 
f 63/20/56 62/21/54 54/21/53 
f 55/20/55 56/19/57 64/19/58 
f 64/19/58 63/20/56 55/20/55 
f 56/19/57 50/16/43 58/16/46 
f 58/16/46 64/19/58 56/19/57 
f 58/16/46 57/24/45 65/24/59 
f 65/24/59 66/16/60 58/16/46 
f 57/24/45 59/23/48 67/23/61 
f 67/23/61 65/24/59 57/24/45 
f 59/23/48 60/22/50 68/22/62 
f 68/22/62 67/23/61 59/23/48 
f 60/22/50 61/15/52 69/15/63 
f 69/15/63 68/22/62 60/22/50 
f 61/15/52 62/21/54 70/21/64 
f 70/21/64 69/15/63 61/15/52 
f 62/21/54 63/20/56 71/20/65 
f 71/20/65 70/21/64 62/21/54 
f 63/20/56 64/19/58 72/19/66 
f 72/19/66 71/20/65 63/20/56 
f 64/19/58 58/16/46 66/16/60 
f 66/16/60 72/19/66 64/19/58 
f 66/16/60 65/24/59 73/25/67 
f 65/24/59 67/23/61 73/25/67 
f 67/23/61 68/22/62 73/25/67 
f 68/22/62 69/15/63 73/25/67 
f 69/15/63 70/21/64 73/25/67 
f 70/21/64 71/20/65 73/25/67 
f 71/20/65 72/19/66 73/25/67 
f 72/19/66 66/16/60 73/25/67 
# 142 faces

